<svg xmlns="http://www.w3.org/2000/svg" width="640" height="160" viewBox="0 0 640 160">
  <defs>
    <style>
      .cls-1 {
        fill: #fefefe;
        fill-rule: evenodd;
      }
    </style>
  </defs>
  <path id="Achejá_copiar" data-name="Achejá copiar" class="cls-1" d="M151.75,13.446H116.039L97.631,87.257l-8.468,40.309H115.4l5.154-24.2h26.6l5.062,24.2h26.324l-8.468-40.483ZM123.862,87.083L133.8,39.62l9.94,47.463H123.862Zm134.163,8.669H235.937v13.022q0,6.56-9.678,6.56-9.6,0-9.6-6.56V49.584q0-6.559,9.522-6.56h0.156q9.6,0.05,9.6,6.56V62.606h22.088V49.584q0-20.321-31.766-20.322-31.689,0-31.688,20.322v59.19q0,20.371,31.688,20.37,31.766-.05,31.766-20.37V95.752Zm42.456-46.168q0.077-6.511,9.6-6.511,9.676,0,9.678,6.56v77.932h22.088V49.634q0-20.321-24.274-20.371-10.536,0-17.092,3.107V-0.578H278.393V127.566h22.088V49.584Zm125.188,36.5v-36.5q0-20.321-31.766-20.322-31.689,0-31.688,20.322v59.19q0,20.371,31.688,20.37,31.765-.05,31.766-20.37V95.752H403.581v13.022q0,6.56-9.678,6.56-9.6,0-9.6-6.56V86.084h41.366ZM384.3,49.584q0-6.559,9.522-6.56h0.156q9.6,0.05,9.6,6.56V72.274H384.3V49.584ZM437.372,159.61h0.237q32.064,0,32.066-20.614V29.638H447.324V139q0,6.637-9.715,6.638h-0.237V159.61Zm9.162-141H470.7V3.334H446.534V18.607Zm62.154,73.521q0-6.638,9.793-6.638,9.636,0,9.715,6.588v16.471q0,6.639-9.715,6.639-9.793,0-9.793-6.639V92.128ZM528.2,74.659q-6.635-3.144-17.3-3.145-24.564.05-24.563,20.614v16.421q0,20.565,32.145,20.614,32.065,0,32.066-20.614V48.655q0-20.563-32.066-20.564-32.145,0-32.145,20.564V61.831h22.352V48.655q0-6.588,9.714-6.638h0.158q9.636,0,9.636,6.638v26Zm6.634-64.487H517.3L506.082,22.8h12.4Z"/>
</svg>
