<svg xmlns="http://www.w3.org/2000/svg" xmlns:xlink="http://www.w3.org/1999/xlink" width="640" height="160" viewBox="0 0 640 160">
  <defs>
    <style>
      .cls-1, .cls-2 {
        fill: #fefefe;
        fill-rule: evenodd;
      }

      .cls-2 {
        filter: url(#filter);
      }
    </style>
    <filter id="filter" x="0.906" y="26.125" width="637.782" height="115.313" filterUnits="userSpaceOnUse">
      <feFlood result="flood" flood-color="#2168da"/>
      <feComposite result="composite" operator="in" in2="SourceGraphic"/>
      <feBlend result="blend" in2="SourceGraphic"/>
    </filter>
  </defs>
  <path id="Buscaturbo_copiar" data-name="Buscaturbo copiar" class="cls-1" d="M0.895,140.023H35.528q32.727-.051,32.727-21.572v-15.5q0-10.1-12.842-14.294,12.842-4.188,12.842-14.294V58.917q0-21.572-31.236-21.625H0.895V140.023ZM34.616,51.9q10.191,0,10.191,7.016V74.363q0,4.922-6.38,6.545a35.275,35.275,0,0,1-6.711.419H24.342V51.9H34.616Zm-2.9,44.088a31.473,31.473,0,0,1,6.711.471q6.379,1.571,6.38,6.493v15.5q0,6.963-10.191,6.964H24.342V95.988h7.374ZM132.092,54H112.458v69.317q0,5.832-8.6,5.832-8.534,0-8.534-5.832V54H75.688v69.317q0,18.109,28.167,18.108,28.236-.043,28.237-18.108V54Zm13.842,24.772q0,11.882,18.385,20.168Q182.7,107.272,182.7,113.5v9.821q0,5.832-8.533,5.832-8.6,0-8.6-5.832V111.744H145.934v11.574q0,18.064,28.237,18.108,28.166,0,28.167-18.108V112.445q0-11.574-18.385-19.861-18.386-8.33-18.385-14.074v-7.8q0-5.831,8.464-5.831h0.139q8.534,0.044,8.533,5.831V82.28h19.634V70.706q0-18.063-28.236-18.064-28.168,0-28.168,18.064v8.067Zm126.651,32.971H252.951v11.574q0,5.832-8.6,5.832-8.534,0-8.533-5.832V70.706q0-5.831,8.464-5.831h0.138q8.533,0.044,8.534,5.831V82.28h19.634V70.706q0-18.063-28.237-18.064-28.169,0-28.167,18.064v52.613q0,18.109,28.167,18.108,28.236-.043,28.237-18.108V111.744Zm33.476-2.85q0-5.831,8.6-5.832,8.463,0,8.533,5.788v14.468q0,5.832-8.533,5.832-8.6,0-8.6-5.832V108.894ZM323.2,93.548Q317.37,90.786,308,90.786q-21.577.044-21.577,18.108v14.424q0,18.064,28.237,18.108,28.165,0,28.167-18.108V70.706q0-18.063-28.167-18.064-28.237,0-28.237,18.064V82.28h19.634V70.706q0-5.787,8.533-5.831h0.139q8.464,0,8.464,5.831V93.548Zm57.689-67.432H361.252V54H347.169V66.233h14.083v73.79h19.634V66.233H396.08V54H380.886V26.116ZM460.083,54H440.449v69.317q0,5.832-8.6,5.832-8.534,0-8.534-5.832V54H403.678v69.317q0,18.109,28.168,18.108,28.236-.043,28.237-18.108V54Zm13.842,86.022h19.634V70.706q0-5.831,8.464-5.831h0.347V52.642h-0.278q-28.167,0-28.167,18.064v69.318Zm57.758-69.317q0.069-5.787,8.534-5.787,8.6,0,8.6,5.831v52.569q0,5.832-8.534,5.832-8.6,0-8.6-5.832V70.706Zm36.771,0.044q0-18.063-21.577-18.108-9.366,0-15.194,2.762V26.116H512.049v97.2q0,18.064,28.237,18.108,28.167,0,28.168-18.108V70.749Zm70.246-.044q0-18.063-28.237-18.064-28.167,0-28.167,18.064v52.613q0,18.109,28.167,18.108,28.236-.043,28.237-18.108V70.706Zm-19.634,52.613q0,5.832-8.6,5.832-8.534,0-8.533-5.832V70.706q0-5.831,8.464-5.831h0.139q8.533,0.044,8.533,5.831v52.613Z"/>
  <path id="Azul" class="cls-2" d="M0.895,140.023H35.528q32.727-.051,32.727-21.572v-15.5q0-10.1-12.842-14.294,12.842-4.188,12.842-14.294V58.917q0-21.572-31.236-21.625H0.895V140.023ZM34.616,51.9q10.191,0,10.191,7.016V74.363q0,4.922-6.38,6.545a35.275,35.275,0,0,1-6.711.419H24.342V51.9H34.616Zm-2.9,44.088a31.473,31.473,0,0,1,6.711.471q6.379,1.571,6.38,6.493v15.5q0,6.963-10.191,6.964H24.342V95.988h7.374ZM132.092,54H112.458v69.317q0,5.832-8.6,5.832-8.534,0-8.534-5.832V54H75.688v69.317q0,18.109,28.167,18.108,28.236-.043,28.237-18.108V54Zm13.842,24.772q0,11.882,18.385,20.168Q182.7,107.272,182.7,113.5v9.821q0,5.832-8.533,5.832-8.6,0-8.6-5.832V111.744H145.934v11.574q0,18.064,28.237,18.108,28.166,0,28.167-18.108V112.445q0-11.574-18.385-19.861-18.386-8.33-18.385-14.074v-7.8q0-5.831,8.464-5.831h0.139q8.534,0.044,8.533,5.831V82.28h19.634V70.706q0-18.063-28.236-18.064-28.168,0-28.168,18.064v8.067Zm126.651,32.971H252.951v11.574q0,5.832-8.6,5.832-8.534,0-8.533-5.832V70.706q0-5.831,8.464-5.831h0.138q8.533,0.044,8.534,5.831V82.28h19.634V70.706q0-18.063-28.237-18.064-28.169,0-28.167,18.064v52.613q0,18.109,28.167,18.108,28.236-.043,28.237-18.108V111.744Zm33.476-2.85q0-5.831,8.6-5.832,8.463,0,8.533,5.788v14.468q0,5.832-8.533,5.832-8.6,0-8.6-5.832V108.894ZM323.2,93.548Q317.37,90.786,308,90.786q-21.577.044-21.577,18.108v14.424q0,18.064,28.237,18.108,28.165,0,28.167-18.108V70.706q0-18.063-28.167-18.064-28.237,0-28.237,18.064V82.28h19.634V70.706q0-5.787,8.533-5.831h0.139q8.464,0,8.464,5.831V93.548Zm57.689-67.432H361.252V54H347.169V66.233h14.083v73.79h19.634V66.233H396.08V54H380.886V26.116ZM460.083,54H440.449v69.317q0,5.832-8.6,5.832-8.534,0-8.534-5.832V54H403.678v69.317q0,18.109,28.168,18.108,28.236-.043,28.237-18.108V54Zm13.842,86.022h19.634V70.706q0-5.831,8.464-5.831h0.347V52.642h-0.278q-28.167,0-28.167,18.064v69.318Zm57.758-69.317q0.069-5.787,8.534-5.787,8.6,0,8.6,5.831v52.569q0,5.832-8.534,5.832-8.6,0-8.6-5.832V70.706Zm36.771,0.044q0-18.063-21.577-18.108-9.366,0-15.194,2.762V26.116H512.049v97.2q0,18.064,28.237,18.108,28.167,0,28.168-18.108V70.749Zm70.246-.044q0-18.063-28.237-18.064-28.167,0-28.167,18.064v52.613q0,18.109,28.167,18.108,28.236-.043,28.237-18.108V70.706Zm-19.634,52.613q0,5.832-8.6,5.832-8.534,0-8.533-5.832V70.706q0-5.831,8.464-5.831h0.139q8.533,0.044,8.533,5.831v52.613Z"/>
</svg>
